<?xml version="1.0" encoding="utf-8"?>
<!-- Generator: Adobe Illustrator 24.0.0, SVG Export Plug-In . SVG Version: 6.00 Build 0)  -->
<svg version="1.1" id="Layer_1" xmlns="http://www.w3.org/2000/svg" xmlns:xlink="http://www.w3.org/1999/xlink" x="0px" y="0px"
	 viewBox="0 0 506.42 485.15" style="enable-background:new 0 0 506.42 485.15;" xml:space="preserve">
<style type="text/css">
	.st0{fill:#BC1732;}
</style>
<g id="Art">
	<g>
		<path class="st0" d="M116.1,221.25H89.32l-7.03-34.14h-48.2l-6.36,34.14H0.95L45.8,0h24.1L116.1,221.25z M77.6,161L57.85,64.94
			L39.44,161H77.6z"/>
		<path class="st0" d="M165.97,221.25h-26.11V0h47.19c24.43,0,47.2,18.74,47.2,44.52v37.49c0,25.77-16.07,26.44-16.07,26.44
			s16.07,0.67,16.07,25.77v87.03h-26.44v-83.68c-0.33-6.02-3.35-17.41-20.75-17.41h-0.33h-20.75v101.09H165.97z M165.97,94.06h21.09
			c17.07,0,20.42-11.38,20.75-17.41V44.52c0-11.05-10.04-19.08-20.75-19.08h-21.09V94.06z"/>
		<path class="st0" d="M354.08,26.11h-34.81v195.14h-26.11V26.11h-34.81V0h95.73V26.11z"/>
	</g>
</g>
<g id="Menu">
	<g>
		<path class="st0" d="M139.91,263.23v221.25H113.8v-128.2L81.67,484.14v0.33H58.24L26.11,362.3v122.18H0V263.23h26.11l43.85,175.39
			l43.85-175.39h23.1H139.91z"/>
		<path class="st0" d="M253.71,484.48h-85.02V263.23h85.02V289H194.8v90.71h31.46v26.11H194.8v52.88h58.91L253.71,484.48
			L253.71,484.48z"/>
		<path class="st0" d="M381.91,263.23v221.25H355.8l-49.54-145.6v145.6h-26.11V263.23h26.11l49.54,145.6v-145.6H381.91
			L381.91,263.23z"/>
		<path class="st0" d="M506.42,263.23v177.4c0,5.02,0,44.52-46.86,44.52c-47.53,0-47.19-40.17-47.19-44.52v-177.4h26.11v177.4
			c0,0,0,21.09,21.09,21.09c21.42,0,21.09-21.09,21.09-21.09v-177.4L506.42,263.23L506.42,263.23z"/>
	</g>
</g>
<g id="Of_the">
	<g>
		<path d="M126.21,251.61c4.69-1.67,9.37-4.35,13.39-7.36c1.67-1.34,4.35-5.69-2.68-7.36c-6.36,5.02-18.07,9.71-27.45,10.71
			c-2.34,0.33-5.02,0.33-7.03,0c3.68-3.01,11.71-10.71,11.71-17.74c0-6.69-5.02-8.37-10.38-6.02c-13.39,6.02-27.45,24.1-31.8,40.17
			c-2.34,9.37,1,20.75,13.05,20.08c9.37-1,15.06-7.03,18.07-15.4c1.67-4.69,1-10.71-0.33-13.39
			C109.14,255.96,117.85,254.29,126.21,251.61z M96.42,264.33c-1.34,6.36-4.69,11.72-11.38,13.39c-3.35,0.67-5.69-0.67-6.36-4.69
			c-0.33-2.34,0-4.69,0.67-6.69c0-0.67,0.33-1,1-1.34c4.69-2.68,8.7-6.03,13.05-9.37c0.33-0.33,0.33-0.33,1-0.33
			C96.09,257.97,97.09,260.65,96.42,264.33z M88.39,249.6c4.02-6.7,9.37-12.38,15.73-16.74C100.11,238.89,95.08,243.91,88.39,249.6z
			"/>
		<path d="M202.86,236.89c0,0-11.05,5.36-21.42,7.03c-3.68,0.67-15.4,0.67-20.08-1c-1.34-3.01-3.01-6.02-5.36-8.03
			c0.33-1,0.67-1.34,1-2.01c13.05-20.75,27.45-40.84,42.17-60.58c2.01-2.68,4.35-5.02,1-7.7c-3.35-1.34-4.69,1.67-6.36,3.35
			c-6.36,7.03-12.05,14.39-17.41,22.09c-9.04,13.05-17.74,26.11-26.11,39.83c-0.67,1-1.34,1.34-2.68,1.67
			c-2.01,0-3.68,1.67-4.02,3.68c-0.33,1.34,0,2.34,0.33,3.35c0.33,1-0.67,2.68-0.67,2.68c-8.7,15.4-16.74,31.13-23.1,47.53
			c-3.35,9.37-7.7,22.43-6.36,32.47c0.67,4.35,4.02,7.7,9.37,7.36c7.7-0.67,16.74-9.37,21.42-16.07
			c8.37-11.38,14.39-23.76,17.41-37.49c1.67-6.69,2.34-16.07,1.34-23.76c5.69,1,16.07,0.67,20.08,0c7.36-1.34,14.39-4.02,21.09-7.36
			C207.88,242.24,207.88,237.89,202.86,236.89z M156.34,263.33c-1,15.73-7.7,31.46-16.4,43.51c-4.69,6.69-10.71,12.38-16.4,14.06
			c-1.67,0.67-2.34,0-2.68-1.67c0-11.38,3.68-21.09,7.03-29.46c5.69-15.06,13.05-29.12,21.09-43.18c0-0.33,0.33-0.67,0.67-1
			c1.67,1,3.35,1.67,4.69,2.68c0.67,0.33,1,0.67,1,1.34C156.34,253.96,156.67,258.64,156.34,263.33z"/>
		<path d="M421.75,236.89c0,0-19.75,16.74-32.13,26.11c-3.68,2.34-15.06,9.04-15.73,0c-0.33-3.68,1.34-9.04,3.35-13.39
			c0.33-0.67,0.67-1,1.67-1c2.01,0,4.35-0.67,6.36-1.67c10.38-4.69,22.09-13.72,26.11-25.77c0.67-4.02-2.01-7.7-6.36-7.7
			c-8.03,0-18.74,11.05-25.77,19.08c-1.79,2.09-3.46,4.39-4.97,6.79c-0.63-1.36-2.29-2.29-4.73-2.44c0,0-9.37,8.37-11.71,10.71
			c-5.36,4.69-21.42,17.74-26.78,17.74c-2.68,0-1.34-4.69-0.67-6.36c1.34-5.02,3.01-10.04,4.69-14.73
			c2.01-4.35,3.68-11.72,2.68-15.06c-1-3.68-4.02-5.69-7.36-4.69c-5.36,1.67-10.38,6.03-15.4,11.05
			c-6.03,5.69-11.38,12.38-16.74,19.41c2.34-5.69,6.03-13.72,7.36-16.4c0.33-0.33,0.67-0.67,1-1c9.04-7.7,18.41-17.4,26.78-26.44
			c6.77-7.98,16.16-19.63,20.48-30.41c1.9,0.28,3.65,0.24,4.96-2.39c0.96-2.64-0.67-4.08-2.9-4.8c0.25-1.58,0.34-3.11,0.22-4.57
			c-0.67-4.02-3.68-6.36-8.37-5.02c-3.44,1.26-7.08,4.25-10.68,8.17c-3.6-0.09-7.56-0.14-12.08-0.14
			c2.68-5.36,5.36-11.38,6.69-16.74c0.67-3.35-0.33-6.36-5.02-6.69c-7.7,0.33-16.07,15.73-20.42,22.09c-1,1-1.67,1.34-2.68,1.34
			c-16.07,0-31.8,1-48.53,1.34c-2.34,0-9.04-2.01-11.04,0.67c-3.01,4.35,3.35,6.69,6.36,6.02c15.06,0,30.12-0.67,49.54-0.67
			c-7.36,12.38-15.06,24.77-24.1,40.5c-18.74,33.47-37.49,69.29-50.54,109.45c-0.67,2.68-1.34,5.69,0.67,8.37
			c1.34,1.34,2.68,1.67,4.02,1c1.34-0.67,2.01-1.67,2.01-3.35c0-1.67,0-3.01,0.67-4.35c13.39-39.83,32.8-77.99,54.89-116.82
			c0.67-1.34,1.67-2.34,2.68-3.01c10.38-8.03,20.42-18.74,28.45-30.12c1-1.34,1.67-1.67,3.01-1.67c3.1,0.11,6.21,0.21,9.31,0.32
			c-8.42,11.45-15.91,25.73-19.35,31.81c-11.38,20.42-21.42,41.17-31.13,63.6c-1.67,4.02-1.67,5.69,0.67,7.7
			c1.34,1,3.01,1.34,4.35,0.33c2.68-2.68,5.02-5.69,8.03-9.37c11.38-14.39,21.76-28.79,36.82-40.5c0,3.01-1.67,6.69-3.01,10.38
			c-2.01,5.02-3.68,10.04-5.02,15.4c-0.33,2.01-0.67,4.02-0.33,6.03c0.67,3.68,3.35,6.69,7.03,7.7c5.02,1.34,10.71-2.01,14.73-4.69
			c9.18-5.7,18.66-13.79,26.45-21.16c-2.77,6.17-4.25,12.36-3.7,17.15c0.67,5.36,4.02,9.71,8.7,10.71c6.02,1,12.05-1.34,17.74-5.02
			c10.71-7.03,21.09-16.74,31.8-25.77C427.11,242.24,428.78,237.55,421.75,236.89z M403.01,221.82
			c-4.69,8.03-11.71,13.72-19.75,18.41C383.93,236.22,397.99,223.16,403.01,221.82z M304.61,187.01c1.67-3.68,2.68-5.36,3.68-7.03
			c0.67-0.67,0.67-0.67,2.34-0.33C308.62,181.66,306.61,184.67,304.61,187.01z M316.66,171.62c-0.67,0-1,0.33-2.01,0
			c1.67-2.34,3.35-4.69,5.69-7.36C319.33,166.59,318,169.61,316.66,171.62z M342.18,180.02c1.04,0.04,2.09,0.07,3.13,0.11
			c-6.68,12.32-19.79,28.36-27.32,35.33C324.86,204.2,332.87,190.9,342.18,180.02z"/>
	</g>
</g>
</svg>
