<?xml version="1.0" encoding="utf-8"?>
<!-- Generator: Adobe Illustrator 24.0.0, SVG Export Plug-In . SVG Version: 6.00 Build 0)  -->
<svg version="1.1" id="Layer_1" xmlns="http://www.w3.org/2000/svg" xmlns:xlink="http://www.w3.org/1999/xlink" x="0px" y="0px"
	 viewBox="0 0 370 144" style="enable-background:new 0 0 370 144;" xml:space="preserve">
<style type="text/css">
	.st0{fill-rule:evenodd;clip-rule:evenodd;fill:#016450;}
</style>
<title>logo</title>
<desc>Created with Sketch.</desc>
<path id="Rectangle_3_" class="st0" d="M49,0l306,0c8.28,0,15,6.72,15,15v0c0,27.06-21.94,49-49,49H15C6.72,64,0,57.28,0,49v0
	C0,21.94,21.94,0,49,0z"/>
<path id="Rectangle_2_" class="st0" d="M15,80h122c27.06,0,49,21.94,49,49v0c0,8.28-6.72,15-15,15H49c-27.06,0-49-21.94-49-49v0
	C0,86.72,6.72,80,15,80z"/>
</svg>
