<?xml version="1.0" encoding="utf-8"?>
<!-- Generator: Adobe Illustrator 24.0.0, SVG Export Plug-In . SVG Version: 6.00 Build 0)  -->
<svg version="1.1" xmlns="http://www.w3.org/2000/svg" xmlns:xlink="http://www.w3.org/1999/xlink" x="0px" y="0px"
	 viewBox="0 0 672 465.49" style="enable-background:new 0 0 672 465.49;" xml:space="preserve">
<style type="text/css">
	.st0{fill:#F7F7F7;}
	.st1{fill:#522B11;}
	.st2{opacity:0.81;}
	.st3{clip-path:url(#SVGID_2_);fill:#522B11;}
	.st4{clip-path:url(#SVGID_4_);fill:#522B11;}
</style>
<g id="Art">
</g>
<g id="Menu">
</g>
<g id="Of_the">
	<g>
		<path class="st0" d="M336,457.46c-100.32,0.96-208.24-22.76-246.24-107.47c-8.88-19.8-11.77-41.65-9.87-63.19
			c4.14-47.03,20.71-95.45,44.06-132.81c3.22-5.15,4.97-11.06,4.93-17.13c-0.12-22.36,4.53-83.22,10.42-114.3
			c2.66-14.02,11.57-19.32,20.82-9.86c18.22,18.63,54.75,64.33,55.05,66.7c36.88-14.14,79.27-20.61,120.84-20.6h0.01
			c41.58-0.01,83.96,6.47,120.84,20.6c0.3-2.37,36.83-48.07,55.05-66.7c9.25-9.46,18.16-4.16,20.82,9.86
			c5.9,31.08,10.54,91.94,10.42,114.3c-0.03,6.08,1.71,11.98,4.93,17.13c23.34,37.37,39.91,85.79,44.06,132.81
			c1.9,21.54-0.99,43.39-9.87,63.19c-38.01,84.71-145.92,108.43-246.24,107.47"/>
	</g>
	<path class="st1" d="M507.51,293.67c1.13-0.69-2.61,0.88-0.62,0.27c0.78-0.24,1.56-0.51,2.34-0.74c2.56-0.76,5.14-1.44,7.72-2.1
		c8.44-2.17,16.95-4.11,25.47-5.95c24.04-5.21,48.97-9.8,72.92-12.93c14.4-1.88,28.87-3.35,43.39-3.96c4.32-0.18,8-3.55,8-8
		c0-4.19-3.66-8.18-8-8c-27.17,1.14-54.25,5.03-81.01,9.72c-21.13,3.7-42.22,7.96-63.03,13.19c-4.82,1.21-10.93,2.06-15.26,4.7
		C490.65,285.2,498.68,299.05,507.51,293.67L507.51,293.67z"/>
	<path class="st1" d="M511.95,336.69c36.94,5.37,73.8,12.89,109.56,23.59c12.93,3.87,26.57,8.46,38.52,13.56
		c3.97,1.69,8.57,1.19,10.95-2.87c1.97-3.36,1.13-9.24-2.87-10.95c-42.73-18.22-88.89-28.35-134.57-36.03
		c-5.77-0.97-11.55-1.89-17.34-2.73c-4.27-0.62-8.6,1.06-9.84,5.59C505.33,330.61,507.65,336.07,511.95,336.69L511.95,336.69z"/>
	<path class="st1" d="M483.15,369.74c9.42,6.39,19.28,12.13,28.75,18.47c17.36,11.62,34.06,23.85,49.8,37.51
		c9.67,8.39,18.91,17.28,27.37,26.89c2.85,3.25,8.4,2.92,11.32,0c3.22-3.22,2.86-8.06,0-11.32c-27.31-31.07-62.06-55.57-96.83-77.59
		c-4.1-2.6-8.3-5.06-12.32-7.78c-3.58-2.43-8.87-0.68-10.95,2.87C477.97,362.74,479.57,367.31,483.15,369.74L483.15,369.74z"/>
	<path class="st1" d="M451.04,142.29c2.66,0.5,5.25,1.28,7.75,2.32c-0.64-0.27-1.27-0.54-1.91-0.81c3.05,1.29,5.91,2.96,8.54,4.97
		c-0.54-0.42-1.08-0.83-1.62-1.25c0.55,0.43,1.09,0.87,1.63,1.33c1.63,1.4,3.45,2.34,5.66,2.34c1.96,0,4.31-0.87,5.66-2.34
		c1.4-1.52,2.44-3.53,2.34-5.66c-0.09-2.03-0.75-4.28-2.34-5.66c-6.13-5.27-13.46-9.17-21.45-10.68c-2.15-0.41-4.23-0.33-6.17,0.81
		c-1.66,0.97-3.24,2.87-3.68,4.78c-0.47,2.05-0.37,4.35,0.81,6.17C447.34,140.29,449.01,141.91,451.04,142.29L451.04,142.29z"/>
	<ellipse class="st1" cx="469.37" cy="226.91" rx="21.34" ry="36.01"/>
	<path class="st1" d="M336,449.46c-49.3,0.43-98.75-4.24-145.22-21.64c-10.31-3.86-20.21-8.38-30.26-14.06
		c-9.81-5.54-18.86-11.71-26.83-18.56c-16.91-14.53-30.39-31.83-38.53-52.88c-11.05-28.61-8.5-59.03-2.27-88.43
		c6.16-29.07,16.33-57.4,30.68-83.44c3.63-6.59,8.18-12.82,10.87-19.88c2.22-5.82,2.37-11.84,2.46-17.97
		c0.15-9.62,0.7-19.24,1.34-28.84c0.8-12.04,1.81-24.07,3.01-36.08c1.19-11.81,2.43-22.6,4.13-33.47
		c0.72-4.61,1.34-10.64,2.89-14.43c0.32-0.78,1.5-2.81,1.52-2.83c-0.59,0.77,0.95-0.96,0.87-0.88c-1.28,1.22,0.03,0,0.03-0.01
		c0.19-0.11,0.39-0.22,0.58-0.32c-0.82,0.32-0.96,0.39-0.4,0.22c1.11-0.51-1.9,0.18,0.11-0.02c0.43-0.04,1.41,0.27-0.11-0.03
		c1.46,0.29-0.41-0.5,0.88,0.3c3.16,1.97,6.4,5.98,9.31,9.18c3.46,3.8,6.84,7.66,10.19,11.55c7.06,8.2,13.97,16.53,20.76,24.95
		c2.95,3.66,5.87,7.34,8.76,11.04c0.26,0.33,0.51,0.66,0.77,0.99c-1.06-1.37-0.37-0.49-0.15-0.19c0.56,0.74,1.13,1.47,1.68,2.21
		c0.92,1.22,1.84,2.45,2.74,3.69c0.56,0.78,1.09,1.58,1.64,2.36c0.98,1.4,0.39,1.41-0.01-0.46c0.84,3.95,5.97,7.06,9.84,5.59
		c29.46-11.22,60.71-17.32,92.11-19.43c31.51-2.12,63.46-0.68,94.51,5.22c17.31,3.29,34.35,7.94,50.81,14.21
		c3.88,1.48,9.01-1.66,9.84-5.59c-0.17,0.8-1.2,2.12-0.07,0.56c0.62-0.87,1.2-1.76,1.82-2.62c0.86-1.19,1.74-2.36,2.62-3.53
		c0.5-0.66,1.01-1.32,1.51-1.98c0.27-0.36,1.13-1.46,0.03-0.04c0.39-0.5,0.78-1,1.17-1.5c6.17-7.91,12.5-15.7,18.92-23.41
		c6.73-8.09,13.56-16.11,20.65-23.89c2.82-3.09,6.02-7.02,9.06-8.91c1.87-1.16-1.06,0.21,0.88-0.3c-0.41,0.11-1.5-0.11-0.11,0.03
		c1.7,0.17-0.1,0-0.2-0.07c1.65,1.01-0.92-0.4,0.2,0.03c0.47,0.18,1.36,1.15,0.32,0.17c0.35,0.34,0.71,0.69,1.02,1.07
		c-0.82-1.01,0.21,0.4,0.36,0.69c0.28,0.55,0.85,1.61,0.96,1.88c1.77,4.41,2.3,10.33,3.06,15.3c0.9,5.84,1.34,9.19,2.04,14.94
		c1.49,12.25,2.69,24.54,3.71,36.84c0.91,11,1.68,22.02,2.18,33.05c0.47,10.26-0.73,21.58,3.09,31.26
		c2.7,6.84,7.12,12.93,10.67,19.36c3.57,6.48,6.89,13.11,9.95,19.85c6.13,13.46,11.15,27.44,15.24,41.65
		c4.18,14.51,7.46,29.37,9.36,44.35c1.86,14.66,2.56,29.55-0.06,44.17c-2.43,13.53-7.22,26.26-14.05,38.17
		c-5.67,9.88-11.39,17.54-19.09,25.66c-3.83,4.04-7.88,7.87-12.13,11.47c-4.29,3.64-7.32,5.94-12.08,9.22
		c-9.45,6.5-19.52,12.08-29.94,16.87c-20.58,9.46-44.39,16.11-67.44,20.39c-24.1,4.48-48.69,6.57-73.63,7.12
		c-6.19,0.14-12.38,0.17-18.57,0.11c-10.3-0.09-10.31,15.91,0,16c51.55,0.45,104.99-4.7,153.32-23.69
		c46.07-18.1,87.37-50.56,104.2-98.59c11.01-31.42,7.4-65.21,0.27-97.05c-6.85-30.57-18.14-60.47-33.72-87.67
		c-3.33-5.82-7.81-11.39-8.77-18.22c-0.62-4.41-0.2-9.16-0.34-13.62c-0.37-11.11-1.09-22.22-1.94-33.3
		c-1.84-24.1-3.95-48.45-8.47-72.22c-1.32-6.94-4.21-13.8-10.05-18.09c-5.57-4.08-12.84-3.82-18.68-0.43
		c-4.59,2.66-8.16,7.06-11.7,10.93c-3.63,3.97-7.17,8.01-10.68,12.09c-12.88,14.95-25.8,30.17-37.29,46.23
		c-1.14,1.6-2.61,3.45-3.03,5.42c3.28-1.86,6.56-3.73,9.84-5.59c-30.59-11.65-63.15-17.71-95.75-19.96
		c-32.76-2.27-65.89-0.49-98.18,5.52c-17.72,3.3-35.17,8.02-52.02,14.44c3.28,1.86,6.56,3.73,9.84,5.59
		c-0.43-2.02-1.96-3.93-3.14-5.57c-2.28-3.17-4.68-6.26-7.08-9.34c-6.39-8.23-12.96-16.33-19.62-24.34
		c-6.97-8.39-14.04-16.7-21.41-24.75c-3.54-3.87-7.15-8.33-11.81-10.88C154-0.79,146.97-0.98,141.5,3.02
		c-10.29,7.52-10.95,22.25-12.57,33.84c-1.79,12.78-3.22,25.61-4.42,38.46c-1.13,12.17-2.08,24.35-2.78,36.56
		c-0.29,5.02-0.53,10.05-0.7,15.08c-0.14,4.35,0.27,8.98-0.33,13.28c-0.96,6.82-5.43,12.4-8.77,18.22
		c-3.85,6.72-7.4,13.6-10.69,20.61c-6.85,14.61-12.66,29.73-17.3,45.19c-4.55,15.18-7.99,30.7-10.18,46.39
		c-2.31,16.51-3.25,32.78-0.87,49.34c7.43,51.82,46.4,92.22,92.15,114.14c46.86,22.45,99.91,29.97,151.41,31.2
		c6.52,0.15,13.04,0.19,19.55,0.13C346.29,465.37,346.31,449.37,336,449.46L336,449.46z"/>
	<path class="st1" d="M172.57,279.85c-3.66-2.23-8.73-3.02-12.8-4.07c-8.6-2.22-17.26-4.19-25.94-6.07
		c-25.2-5.46-50.61-10-76.18-13.38c-14.73-1.95-29.53-3.47-44.39-4.09c-4.32-0.18-8,3.81-8,8c0,4.48,3.67,7.82,8,8
		c26.05,1.09,51.2,4.67,76.76,9.15c20.96,3.67,41.87,7.89,62.51,13.06c3.12,0.78,6.24,1.58,9.32,2.47c0.96,0.28,1.92,0.58,2.87,0.88
		c0.32,0.1,0.68,0.3,1.01,0.36c0.54,0.09-2.3-1.14-1.25-0.5C173.31,299.04,181.36,285.21,172.57,279.85L172.57,279.85z"/>
	<path class="st1" d="M155.8,321.26c-37.44,5.45-74.81,13.08-111.03,24.04c-13.88,4.2-27.53,9.04-40.87,14.73
		c-3.98,1.7-4.86,7.55-2.87,10.95c2.41,4.11,6.96,4.57,10.95,2.87c22.01-9.38,46.57-16.35,70.29-22.11
		c20.09-4.87,40.37-8.94,60.75-12.36c5.67-0.95,11.35-1.85,17.04-2.68c4.28-0.62,6.63-6.05,5.59-9.84
		C164.38,322.26,160.09,320.64,155.8,321.26L155.8,321.26z"/>
	<path class="st1" d="M180.77,355.92c-9.64,6.54-19.74,12.42-29.42,18.92c-18.02,12.09-35.56,25.01-51.98,39.22
		c-9.81,8.49-19.19,17.48-27.76,27.23c-2.85,3.24-3.19,8.12,0,11.32c2.91,2.91,8.45,3.26,11.32,0
		c26.59-30.25,59.99-53.82,93.84-75.24c4.02-2.54,8.14-4.96,12.08-7.63c3.57-2.42,5.16-7.04,2.87-10.95
		C189.65,355.25,184.37,353.48,180.77,355.92L180.77,355.92z"/>
	<path class="st1" d="M216.71,126.86c-7.99,1.51-15.32,5.41-21.45,10.68c-1.49,1.28-2.34,3.76-2.34,5.66c0,1.96,0.87,4.31,2.34,5.66
		c1.52,1.4,3.53,2.44,5.66,2.34c2.21-0.1,3.98-0.9,5.66-2.34c0.53-0.46,1.07-0.9,1.63-1.33c-0.54,0.42-1.08,0.83-1.62,1.25
		c2.63-2.02,5.49-3.68,8.54-4.97c-0.64,0.27-1.27,0.54-1.91,0.81c2.5-1.04,5.09-1.82,7.75-2.32c1.88-0.36,3.85-2.08,4.78-3.68
		c1-1.72,1.43-4.24,0.81-6.17c-0.63-1.94-1.83-3.8-3.68-4.78C220.88,126.62,218.92,126.44,216.71,126.86L216.71,126.86z"/>
	<ellipse class="st1" cx="202.64" cy="226.91" rx="21.34" ry="36.01"/>
	<path class="st1" d="M404.77,275.35c-3.42-2.64-8.96-0.52-10.95,2.87c-2.19,3.74-0.87,7.51,1.95,10.15
		c0.03,0.06,0.12,0.2,0.31,0.45c0.09,0.12,0.21,0.27,0.34,0.4c0.69,1.03,1.34,2.07,1.9,3.18c0.17,0.35,0.34,0.7,0.5,1.06
		c0.02,0.06,0.04,0.11,0.07,0.2c0.29,0.8,0.56,1.6,0.8,2.41c0.59,2.01,0.9,3.65,1,5.38c0.27,4.37-0.39,8.55-1.82,12.67
		c-1.01,2.9-2.97,6-5.03,8.05c-1.79,1.78-4.94,3.72-6.86,4.33c-4.42,1.41-8.76,1.79-13.39,1.42c-4.64-0.37-9.3-1.74-13.62-3.46
		c-1.81-0.72-3.63-1.52-5.29-2.55c-0.2-0.13-1.07-0.79-1.18-0.86c-0.77-0.68-1.49-1.41-2.17-2.18c-4.67-5.2-7.42-14.25-7.32-21.3
		c0-0.24-0.01-0.47-0.03-0.71c0.03-0.03,0.06-0.05,0.09-0.08l20.84-20.84c7.18-7.18,2.1-19.46-8.06-19.46h-41.68
		c-10.16,0-15.24,12.28-8.06,19.46l20.84,20.84c0.02,0.02,0.05,0.05,0.08,0.07c-0.02,0.24-0.03,0.47-0.03,0.71
		c0.09,6.79-2.02,13.68-6.17,19.81c-1.64,2.42-3.35,4.04-6.39,5.55c-4.39,2.18-9.18,3.71-14,4.59c-4.19,0.76-8.7,0.85-12.87-0.05
		c-3.59-0.78-6.1-1.74-8.73-3.77c-2.33-1.8-4.04-4-5.68-7.21c-1.48-2.89-2.7-7.42-2.87-11.32c-0.1-2.33,0.01-4.64,0.39-6.47
		c0.33-1.6,1.19-4.47,1.49-5.2c0.24-0.57,1.43-2.72,2.17-3.94c0.08-0.13,0.17-0.24,0.25-0.36c0.02-0.02,0.03-0.04,0.06-0.07
		c0.4-0.5,1.64-1.49,0.29-0.45c0.03-0.05,0-0.03-0.05,0.04c-0.16,0.12-0.34,0.26-0.57,0.44c3.41-2.64,5.25-6.88,2.87-10.95
		c-1.97-3.36-7.51-5.53-10.95-2.87c-7.51,5.8-10.88,15.4-11.8,24.58c-1.17,11.55,2.69,24.08,10.56,32.66
		c7.73,8.42,19.52,11.93,30.7,11.45c6.69-0.28,13.36-1.71,19.59-4.14c5.61-2.18,10.94-4.62,15.13-9.07c1.7-1.8,3.23-3.79,4.61-5.91
		c0.52,0.79,1.06,1.58,1.63,2.33c7.52,9.96,19.93,14.57,32,16.22c11.93,1.64,24.25-0.45,33.66-8.33
		c8.91-7.47,13.27-19.66,13.44-31.06C416.91,293.69,413.23,281.89,404.77,275.35z"/>
	<g class="st2">
		<defs>
			<path id="SVGID_1_" class="st2" d="M333.33,457.46C233,458.42,125.09,434.7,87.09,349.99c-8.88-19.8-11.77-41.65-9.87-63.19
				c4.14-47.03,20.71-95.45,44.06-132.81c3.22-5.15,4.97-11.06,4.93-17.13c-0.12-22.36,4.53-83.22,10.42-114.3
				c2.66-14.02,11.57-19.32,20.82-9.86c18.22,18.63,54.75,64.33,55.05,66.7c36.88-14.14,79.27-20.61,120.84-20.6h0.01
				c41.58-0.01,83.96,6.47,120.84,20.6c0.3-2.37,36.83-48.07,55.05-66.7c9.25-9.46,18.16-4.16,20.82,9.86
				c5.9,31.08,10.54,91.94,10.42,114.3c-0.03,6.08,1.71,11.98,4.93,17.13c23.34,37.37,39.91,85.79,44.06,132.81
				c1.9,21.54-0.99,43.39-9.87,63.19c-38.01,84.71-145.92,108.43-246.24,107.47"/>
		</defs>
		<clipPath id="SVGID_2_">
			<use xlink:href="#SVGID_1_"  style="overflow:visible;"/>
		</clipPath>
		<path class="st3" d="M-112.08,388.27c0,0,413.42-106.69,445.42-304.06s32.01-197.37,32.01-197.37L31.95-78.49L-85.41,366.93
			L-112.08,388.27z"/>
	</g>
	<g class="st2">
		<defs>
			<path id="SVGID_3_" class="st2" d="M338.68,457.46C439,458.42,546.91,434.7,584.92,349.99c8.88-19.8,11.77-41.65,9.87-63.19
				c-4.14-47.03-20.71-95.45-44.06-132.81c-3.22-5.15-4.97-11.06-4.93-17.13c0.12-22.36-4.53-83.22-10.42-114.3
				c-2.66-14.02-11.57-19.32-20.82-9.86c-18.22,18.63-54.75,64.33-55.05,66.7c-36.88-14.14-79.27-20.61-120.84-20.6h-0.01
				c-41.58-0.01-83.96,6.47-120.84,20.6c-0.3-2.37-36.83-48.07-55.05-66.7c-9.25-9.46-18.16-4.16-20.82,9.86
				c-5.9,31.08-10.54,91.94-10.42,114.3c0.03,6.08-1.71,11.98-4.93,17.13c-23.34,37.37-39.91,85.79-44.06,132.81
				c-1.9,21.54,0.99,43.39,9.87,63.19c38.01,84.71,145.92,108.43,246.24,107.47"/>
		</defs>
		<clipPath id="SVGID_4_">
			<use xlink:href="#SVGID_3_"  style="overflow:visible;"/>
		</clipPath>
		<path class="st4" d="M784.09,388.27c0,0-413.42-106.69-445.42-304.06s-32.01-197.37-32.01-197.37l333.4,34.67l117.36,445.42
			L784.09,388.27z"/>
	</g>
</g>
</svg>
